<svg width="1200" height="630" viewBox="0 0 1200 630" xmlns="http://www.w3.org/2000/svg">
  <defs>
    <linearGradient id="bgGradient" x1="0%" y1="0%" x2="100%" y2="100%">
      <stop offset="0%" style="stop-color:#1e3a5f"/>
      <stop offset="100%" style="stop-color:#0f172a"/>
    </linearGradient>
    <linearGradient id="orangeGradient" x1="0%" y1="0%" x2="100%" y2="100%">
      <stop offset="0%" style="stop-color:#f97316"/>
      <stop offset="100%" style="stop-color:#ea580c"/>
    </linearGradient>
    <filter id="shadow" x="-20%" y="-20%" width="140%" height="140%">
      <feDropShadow dx="0" dy="10" stdDeviation="20" flood-color="#f97316" flood-opacity="0.4"/>
    </filter>
    <filter id="textShadow" x="-20%" y="-20%" width="140%" height="140%">
      <feDropShadow dx="0" dy="4" stdDeviation="10" flood-color="#000" flood-opacity="0.3"/>
    </filter>
  </defs>

  <!-- Background -->
  <rect width="1200" height="630" fill="url(#bgGradient)"/>

  <!-- Decorative dots pattern -->
  <g opacity="0.08">
    <circle cx="100" cy="100" r="3" fill="white"/>
    <circle cx="200" cy="150" r="2" fill="white"/>
    <circle cx="300" cy="80" r="3" fill="white"/>
    <circle cx="400" cy="180" r="2" fill="white"/>
    <circle cx="500" cy="120" r="3" fill="white"/>
    <circle cx="600" cy="60" r="2" fill="white"/>
    <circle cx="700" cy="140" r="3" fill="white"/>
    <circle cx="800" cy="90" r="2" fill="white"/>
    <circle cx="900" cy="170" r="3" fill="white"/>
    <circle cx="1000" cy="110" r="2" fill="white"/>
    <circle cx="1100" cy="160" r="3" fill="white"/>
    <circle cx="150" cy="500" r="2" fill="white"/>
    <circle cx="250" cy="550" r="3" fill="white"/>
    <circle cx="350" cy="480" r="2" fill="white"/>
    <circle cx="450" cy="530" r="3" fill="white"/>
    <circle cx="550" cy="470" r="2" fill="white"/>
    <circle cx="650" cy="520" r="3" fill="white"/>
    <circle cx="750" cy="490" r="2" fill="white"/>
    <circle cx="850" cy="540" r="3" fill="white"/>
    <circle cx="950" cy="510" r="2" fill="white"/>
    <circle cx="1050" cy="560" r="3" fill="white"/>
  </g>

  <!-- Badge "Datos DGT en vivo" -->
  <rect x="920" y="35" width="240" height="50" rx="25" fill="#10b981"/>
  <text x="1040" y="68" font-family="Arial, sans-serif" font-size="18" font-weight="bold" fill="white" text-anchor="middle" letter-spacing="1">DATOS DGT EN VIVO</text>

  <!-- Main content group -->
  <g transform="translate(600, 280)">
    <!-- Beacon icon -->
    <g transform="translate(-280, -60)">
      <rect x="-60" y="-60" width="120" height="120" rx="24" fill="url(#orangeGradient)" filter="url(#shadow)"/>
      <text x="0" y="20" font-size="60" text-anchor="middle">🚨</text>
    </g>

    <!-- Title -->
    <g filter="url(#textShadow)">
      <text x="40" y="10" font-family="Arial, sans-serif" font-size="72" font-weight="800" fill="white" letter-spacing="-2">Baliza</text>
      <text x="255" y="10" font-family="Arial, sans-serif" font-size="72" font-weight="800" fill="#f97316" letter-spacing="-2">V16</text>
    </g>

    <!-- Subtitle -->
    <text x="150" y="70" font-family="Arial, sans-serif" font-size="28" fill="#94a3b8" text-anchor="middle" font-weight="500">Mapa de vehículos detenidos en tiempo real</text>
  </g>

  <!-- Features -->
  <g transform="translate(600, 450)">
    <!-- Feature 1 -->
    <g transform="translate(-320, 0)">
      <rect x="-100" y="-25" width="200" height="50" rx="25" fill="rgba(255,255,255,0.1)"/>
      <text x="0" y="8" font-family="Arial, sans-serif" font-size="18" fill="white" text-anchor="middle" font-weight="600">📍 Localización exacta</text>
    </g>

    <!-- Feature 2 -->
    <g transform="translate(0, 0)">
      <rect x="-120" y="-25" width="240" height="50" rx="25" fill="rgba(255,255,255,0.1)"/>
      <text x="0" y="8" font-family="Arial, sans-serif" font-size="18" fill="white" text-anchor="middle" font-weight="600">⚡ Actualización cada minuto</text>
    </g>

    <!-- Feature 3 -->
    <g transform="translate(300, 0)">
      <rect x="-80" y="-25" width="160" height="50" rx="25" fill="rgba(255,255,255,0.1)"/>
      <text x="0" y="8" font-family="Arial, sans-serif" font-size="18" fill="white" text-anchor="middle" font-weight="600">🇪🇸 Toda España</text>
    </g>
  </g>

  <!-- URL at bottom -->
  <text x="600" y="590" font-family="Arial, sans-serif" font-size="24" fill="#64748b" text-anchor="middle" font-weight="600">mapabalizasv16.info</text>
</svg>
